<?xml version="1.0" standalone="no"?><!DOCTYPE svg PUBLIC "-//W3C//DTD SVG 1.1//EN" "http://www.w3.org/Graphics/SVG/1.1/DTD/svg11.dtd"><svg t="1655644454728" class="icon" viewBox="0 0 1024 1024" version="1.1" xmlns="http://www.w3.org/2000/svg" p-id="6237" xmlns:xlink="http://www.w3.org/1999/xlink" width="200" height="200"><defs><style type="text/css">@font-face { font-family: feedback-iconfont; src: url("//at.alicdn.com/t/font_1031158_u69w8yhxdu.woff2?t=1630033759944") format("woff2"), url("//at.alicdn.com/t/font_1031158_u69w8yhxdu.woff?t=1630033759944") format("woff"), url("//at.alicdn.com/t/font_1031158_u69w8yhxdu.ttf?t=1630033759944") format("truetype"); }
</style></defs><path d="M887.89 646.54L559.95 468.5c5.74-17.93 18.7-34.01 37.45-45.88 56.85-36.04 84.63-102.31 70.77-168.85-12.61-60.54-61.77-109.7-122.31-122.31-48.09-9.97-97.09 1.72-134.56 32.21-37.5 30.49-59.01 75.68-59.01 123.96 0 24.63 19.97 44.6 44.6 44.6s44.6-19.97 44.6-44.6c0-21.32 9.51-41.27 26.07-54.75 16.81-13.65 38.12-18.69 60.1-14.09 26.32 5.49 47.68 26.85 53.17 53.18 6.21 29.79-6.03 59.35-31.18 75.29-44.12 27.94-72.98 71.02-80.37 118.39L136.13 646.54c-54.29 29.47-80.56 89.49-65.36 149.35C85.97 855.78 137.69 896 199.48 896h625.05c61.77 0 113.5-40.22 128.7-100.11 15.2-59.86-11.06-119.88-65.34-149.35z m-21.11 127.4c-1.96 7.71-10.79 32.86-42.25 32.86H199.48c-31.46 0-40.29-25.15-42.25-32.86-1.95-7.69-6.18-34 21.45-49L512 543.96l333.32 180.98c27.66 15.01 23.41 41.32 21.46 49z" fill="#3774e1" p-id="6238"></path></svg>